<svg width="1920" height="1080" viewBox="0 0 1920 1080" fill="none" xmlns="http://www.w3.org/2000/svg">
<rect width="1920" height="1080" fill="#A0D5BE"/>
<path d="M830.04 568V512H854.2C857.72 512 860.84 512.8 863.56 514.4C866.333 516 868.52 518.187 870.12 520.96C871.773 523.733 872.6 526.853 872.6 530.32C872.6 533.947 871.773 537.2 870.12 540.08C868.52 542.907 866.333 545.147 863.56 546.8C860.84 548.453 857.72 549.28 854.2 549.28H843.64V568H830.04ZM843.4 537.36H852.28C853.453 537.36 854.52 537.067 855.48 536.48C856.44 535.893 857.213 535.093 857.8 534.08C858.387 533.067 858.68 531.893 858.68 530.56C858.68 529.173 858.387 528 857.8 527.04C857.213 526.08 856.44 525.333 855.48 524.8C854.52 524.267 853.453 524 852.28 524H843.4V537.36ZM881.649 568V525.52H893.809L894.369 539.36L891.969 536.72C892.609 534.427 893.649 532.373 895.089 530.56C896.582 528.747 898.315 527.307 900.289 526.24C902.262 525.173 904.369 524.64 906.609 524.64C907.569 524.64 908.449 524.72 909.249 524.88C910.102 525.04 910.875 525.227 911.569 525.44L908.049 539.6C907.462 539.227 906.662 538.933 905.649 538.72C904.689 538.453 903.675 538.32 902.609 538.32C901.435 538.32 900.342 538.533 899.329 538.96C898.315 539.333 897.462 539.893 896.769 540.64C896.075 541.387 895.515 542.267 895.089 543.28C894.715 544.293 894.529 545.44 894.529 546.72V568H881.649ZM936.258 568.8C931.831 568.8 927.885 567.84 924.418 565.92C921.005 564 918.285 561.387 916.258 558.08C914.285 554.773 913.298 550.987 913.298 546.72C913.298 542.453 914.285 538.667 916.258 535.36C918.285 532.053 921.005 529.44 924.418 527.52C927.885 525.6 931.831 524.64 936.258 524.64C940.685 524.64 944.605 525.6 948.018 527.52C951.485 529.44 954.205 532.053 956.178 535.36C958.151 538.667 959.138 542.453 959.138 546.72C959.138 550.987 958.151 554.773 956.178 558.08C954.205 561.387 951.485 564 948.018 565.92C944.605 567.84 940.685 568.8 936.258 568.8ZM936.258 557.76C938.178 557.76 939.885 557.28 941.378 556.32C942.871 555.36 944.045 554.053 944.898 552.4C945.751 550.747 946.151 548.853 946.098 546.72C946.151 544.587 945.751 542.693 944.898 541.04C944.045 539.333 942.871 538 941.378 537.04C939.885 536.08 938.178 535.6 936.258 535.6C934.338 535.6 932.605 536.08 931.058 537.04C929.565 538 928.391 539.333 927.538 541.04C926.685 542.693 926.285 544.587 926.338 546.72C926.285 548.853 926.685 550.747 927.538 552.4C928.391 554.053 929.565 555.36 931.058 556.32C932.605 557.28 934.338 557.76 936.258 557.76ZM967.508 568V525.52H979.668L980.068 534.16L977.508 535.12C978.095 533.2 979.135 531.467 980.628 529.92C982.175 528.32 984.015 527.04 986.148 526.08C988.281 525.12 990.521 524.64 992.868 524.64C996.068 524.64 998.761 525.307 1000.95 526.64C1003.13 527.92 1004.79 529.867 1005.91 532.48C1007.03 535.04 1007.59 538.187 1007.59 541.92V568H994.708V542.96C994.708 541.253 994.468 539.84 993.988 538.72C993.508 537.6 992.761 536.773 991.748 536.24C990.788 535.653 989.588 535.387 988.148 535.44C987.028 535.44 985.988 535.627 985.028 536C984.068 536.32 983.241 536.827 982.548 537.52C981.855 538.16 981.295 538.907 980.868 539.76C980.495 540.613 980.308 541.547 980.308 542.56V568H973.988C972.495 568 971.215 568 970.148 568C969.081 568 968.201 568 967.508 568ZM1021.81 568V514.8H1034.61V568H1021.81ZM1014.29 536.72V525.52H1042.85V536.72H1014.29ZM1069.77 568.8C1065.35 568.8 1061.4 567.84 1057.93 565.92C1054.52 564 1051.8 561.387 1049.77 558.08C1047.8 554.773 1046.81 550.987 1046.81 546.72C1046.81 542.453 1047.8 538.667 1049.77 535.36C1051.8 532.053 1054.52 529.44 1057.93 527.52C1061.4 525.6 1065.35 524.64 1069.77 524.64C1074.2 524.64 1078.12 525.6 1081.53 527.52C1085 529.44 1087.72 532.053 1089.69 535.36C1091.67 538.667 1092.65 542.453 1092.65 546.72C1092.65 550.987 1091.67 554.773 1089.69 558.08C1087.72 561.387 1085 564 1081.53 565.92C1078.12 567.84 1074.2 568.8 1069.77 568.8ZM1069.77 557.76C1071.69 557.76 1073.4 557.28 1074.89 556.32C1076.39 555.36 1077.56 554.053 1078.41 552.4C1079.27 550.747 1079.67 548.853 1079.61 546.72C1079.67 544.587 1079.27 542.693 1078.41 541.04C1077.56 539.333 1076.39 538 1074.89 537.04C1073.4 536.08 1071.69 535.6 1069.77 535.6C1067.85 535.6 1066.12 536.08 1064.57 537.04C1063.08 538 1061.91 539.333 1061.05 541.04C1060.2 542.693 1059.8 544.587 1059.85 546.72C1059.8 548.853 1060.2 550.747 1061.05 552.4C1061.91 554.053 1063.08 555.36 1064.57 556.32C1066.12 557.28 1067.85 557.76 1069.77 557.76Z" fill="#333333"/>
</svg>
